<svg xmlns="http://www.w3.org/2000/svg" width="512" height="512" style="overflow: visible;" viewBox="0 0 512 512"
    data-svgdocument="" id="_hkcGc1TWxMQnvrJ-o7pxz" class="fl-svgdocument" x="0" y="0"
    xmlns:xlink="http://www.w3.org/1999/xlink"
    data-bbox="148.31653586318464 160.038527482005 217.05630577795569 191.922947233137">
    <defs id="_UdU2iQyLBTzo8QEQtfiMp"
        transform="matrix(0.8091716766357422, 0, 0, 0.8091716766357422, 43.9416618347168, 136.5172119140625)"
        data-uid="o_f02g820nh_5"></defs>
    <g id="_2pGrrHDisTubxdFeOQ9h1"
        transform="matrix(2.0350923641578866, 0, 0, 2.0350923641578866, -255.3062809322177, -261.94557027356404)"
        data-uid="o_f02g820nh_6">
        <path id="_fclVC_gW3knTSnF4jsxLl"
            d="M24.777,38.979h-6.758c-1.116,0-2.021,0.905-2.021,2.021v41.355c0,1.116,0.905,2.021,2.021,2.021h40.753   c1.116,0,2.021-0.905,2.021-2.021V41c0-1.116-0.905-2.021-2.021-2.021H43.326V28.354H62.77c4.776,0,8.648,3.872,8.648,8.648v49.351   c0,4.776-3.872,8.648-8.648,8.648H14.021c-4.776,0-8.648-3.872-8.648-8.648V37.002c0-4.776,3.872-8.648,8.648-8.648h10.756V38.979z   "
            fill="#1d7c45"
            transform="matrix(1.4074040651321411, 1.359120488166809, -1.359120488166809, 1.4074040651321411, 250.65484619140625, 85.92305755615234)"
            data-uid="o_f02g820nh_7"></path>
        <path id="_2yC6JlP49xF4W450B5ghS"
            d="M75.223,61.021h6.758c1.116,0,2.021-0.905,2.021-2.021V17.646c0-1.116-0.905-2.021-2.021-2.021H41.228   c-1.116,0-2.021,0.905-2.021,2.021V59c0,1.116,0.905,2.021,2.021,2.021h15.446v10.625H37.23c-4.776,0-8.648-3.872-8.648-8.648   V13.648C28.582,8.872,32.454,5,37.23,5h48.749c4.776,0,8.648,3.872,8.648,8.648v49.351c0,4.776-3.872,8.648-8.648,8.648H75.223   V61.021z"
            fill="#0d4122"
            transform="matrix(1.407404065132141, 1.3591204881668089, -1.3591204881668089, 1.407404065132141, 250.65473937988276, 85.9222946166992)"
            data-uid="o_f02g820nh_8"></path>
    </g>
    <path id="_kCfronMV8leRKdbxpuZJG" fill="#0d4122"
        transform="matrix(0.9672922057655543, 0, 0, 0.9672922057655543, 257.5829592224715, 456.13294821781415)"
        text="easypay" text-anchor="middle" font-size="100" letter-spacing="0" side="left" offset="0.5" dx="0" dy="0"
        space="preserve" href="" font-family="Monda" font-scale="contain" x="0" y="0" data-fl-textpath=""
        font-weight="400" font-style="normal" data-uid="o_f02g820nh_9"
        d="M-164.69703125 1.07L-164.69703125 1.07Q-176.07703125 1.07 -181.15703125-3.66Q-186.22703125-8.4 -186.22703125-18.26L-186.22703125-18.26L-186.22703125-36.28Q-186.22703125-43.95 -181.00703125-48.34Q-175.77703125-52.73 -165.20703125-52.73Q-154.63703125-52.73 -149.48703125-48.66Q-144.33703125-44.58 -144.33703125-37.01L-144.33703125-37.01L-144.33703125-24.71L-177.04703125-24.71L-177.04703125-17.43Q-177.04703125-10.99 -174.46703125-8.47Q-171.87703125000002-5.96 -165.13703125-5.96Q-158.39703125-5.96 -157.51703125-6.25Q-156.63703125-6.54 -155.71703125-6.93Q-154.78703124999998-7.32 -154.41703125-7.86Q-154.05703125-8.4 -153.44703125-9.5Q-152.82703125-10.6 -152.53703124999998-13.77L-152.53703124999998-13.77L-144.43703125-13.77Q-144.91703125-9.13 -146.06703125-6.3Q-147.21703125-3.47 -149.68703125-1.78Q-152.14703125-0.1 -155.58703125 0.49Q-159.03703124999998 1.07 -164.69703125 1.07ZM-177.04703125-37.11L-177.04703125-30.91L-153.22703125-30.91L-153.22703125-37.99Q-153.22703125-42.38 -156.22703125-44.04Q-159.22703125-45.7 -165.03703124999998-45.7Q-170.84703125-45.7 -173.94703125-43.7Q-177.04703125-41.7 -177.04703125-37.11L-177.04703125-37.11ZM-113.9140625 1.07L-113.9140625 1.07Q-121.7740625 1.07 -126.12406250000001-3.2Q-130.4640625-7.47 -130.4640625-13.82L-130.4640625-13.82Q-130.4640625-17.43 -128.9540625-19.82L-128.9540625-19.82Q-125.87406250000001-24.71 -110.5940625-29.15L-110.5940625-29.15Q-101.7540625-31.59 -100.4140625-33.35Q-99.0740625-35.11 -98.92406249999999-36.11Q-98.7840625-37.11 -98.7840625-39.31Q-98.7840625-41.5 -100.5640625-43.6Q-102.3440625-45.7 -108.3040625-45.7L-108.3040625-45.7Q-116.70406249999999-45.7 -118.6040625-42.48L-118.6040625-42.48Q-119.5840625-40.82 -119.5840625-37.99L-119.5840625-37.99L-119.5840625-35.69L-128.4140625-35.69L-128.4140625-38.04Q-128.4140625-45.61 -123.3640625-49.17Q-118.3140625-52.73 -108.2540625-52.73Q-98.1940625-52.73 -93.89406249999999-48.17Q-89.6040625-43.6 -89.6040625-35.16L-89.6040625-35.16L-89.6040625-13.09Q-89.6040625-9.03 -88.5740625-7.84Q-87.5440625-6.64 -84.18406250000001-6.64L-84.18406250000001-6.64L-85.2540625 0.39L-87.1140625 0.39Q-91.9940625 0.39 -94.3840625-1.49Q-96.7740625-3.37 -98.0440625-7.32L-98.0440625-7.32Q-102.1040625-1.27 -107.8140625 0.29L-107.8140625 0.29Q-110.5440625 1.07 -113.9140625 1.07ZM-109.3040625-22.88Q-116.2640625-20.85 -118.9240625-18.85Q-121.5840625-16.85 -121.5840625-13.21Q-121.5840625-9.57 -119.1140625-7.71Q-116.6540625-5.86 -113.1640625-5.86Q-109.6640625-5.86 -106.8340625-6.76Q-104.0040625-7.67 -101.7340625-9.45Q-99.4640625-11.23 -98.7840625-13.53L-98.7840625-13.53L-98.7840625-28.47Q-102.3440625-24.9 -109.3040625-22.88ZM-55.1275-5.96L-55.1275-5.96Q-44.7275-5.96 -44.7275-13.72L-44.7275-13.72Q-44.7275-17.09 -45.6575-18.73Q-46.5775-20.36 -49.9975-21.63L-49.9975-21.63L-62.307500000000005-26.17Q-67.9675-28.17 -70.1875-30.93Q-72.4075-33.69 -72.4075-37.84Q-72.4075-41.99 -71.5775-44.51Q-70.7475-47.02 -68.8475-48.93L-68.8475-48.93Q-65.0375-52.73 -55.177499999999995-52.73Q-45.3075-52.73 -38.1875-49.9L-38.1875-49.9L-40.2875-42.87Q-42.7775-43.9 -46.8275-44.8Q-50.8775-45.7 -53.9075-45.7L-53.9075-45.7Q-60.8875-45.7 -62.7475-43.46L-62.7475-43.46Q-63.8675-42.04 -63.8675-39.31Q-63.8675-36.57 -62.9675-35.42Q-62.057500000000005-34.28 -59.427499999999995-33.35L-59.427499999999995-33.35L-47.2675-28.56Q-40.9175-26.07 -38.9175-23.07Q-36.9175-20.07 -36.9175-13.62Q-36.9175-7.18 -41.0675-3.05Q-45.2175 1.07 -53.9075 1.07L-53.9075 1.07Q-60.2575 1.07 -65.1875-0.29Q-70.1175-1.66 -72.7575-3.13L-72.7575-3.13L-70.5075-9.86Q-63.5275-5.96 -55.1275-5.96ZM-21.58 19.82L-21.58 19.82L-21.58 12.65Q-15.53 12.65 -11.79 9.67Q-8.059999999999999 6.69 -6.199999999999999-0.2L-6.199999999999999-0.2L-27.54-51.76L-17.82-51.76L-2-10.55L 11.229999999999997-51.76L 20.509999999999998-51.76L 3.520000000000003-2.2Q 0.14999999999999858 7.62 -2.5599999999999987 11.4Q-5.27 15.19 -7.760000000000002 16.7L-7.760000000000002 16.7Q-12.89 19.82 -21.58 19.82ZM 41.599843750000005 19.92L 32.41984375 19.92L 32.41984375-51.76L 39.64984375-51.76L 40.719843749999995-47.85Q 42.969843749999995-49.85  46.87984375-51.29Q 50.77984375-52.73  54.97984375-52.73L 54.97984375-52.73Q 64.59984374999999-52.73  69.59984374999999-48.05Q 74.60984375000001-43.36  74.60984375000001-35.6L 74.60984375000001-35.6L 74.60984375000001-16.8Q 74.60984375000001-8.79  69.13984375-3.86Q 63.66984375 1.07  53.80984375 1.07L 53.80984375 1.07Q 46.969843749999995 1.07  41.599843750000005-1.66L 41.599843750000005-1.66L 41.599843750000005 19.92ZM 41.599843750000005-40.23L 41.599843750000005-8.74Q 46.52984375-5.96  52.63984375-5.96Q 58.73984375-5.96  62.08984375-8.54Q 65.42984375-11.13  65.42984375-15.82L 65.42984375-15.82L 65.42984375-36.33Q 65.42984375-40.82  62.12984375-43.26Q 58.83984375-45.7  54.079843749999995-45.7Q 49.319843750000004-45.7  45.969843749999995-43.75Q 42.62984375-41.8  41.599843750000005-40.23L 41.599843750000005-40.23ZM 104.8359375 1.07L 104.8359375 1.07Q 96.9759375 1.07  92.62593749999999-3.2Q 88.2859375-7.47  88.2859375-13.82L 88.2859375-13.82Q 88.2859375-17.43  89.7959375-19.82L 89.7959375-19.82Q 92.87593749999999-24.71  108.1559375-29.15L 108.1559375-29.15Q 116.9959375-31.59  118.3359375-33.35Q 119.6759375-35.11  119.82593750000001-36.11Q 119.9659375-37.11  119.9659375-39.31Q 119.9659375-41.5  118.1859375-43.6Q 116.4059375-45.7  110.4459375-45.7L 110.4459375-45.7Q 102.04593750000001-45.7  100.1459375-42.48L 100.1459375-42.48Q 99.1659375-40.82  99.1659375-37.99L 99.1659375-37.99L 99.1659375-35.69L 90.3359375-35.69L 90.3359375-38.04Q 90.3359375-45.61  95.3859375-49.17Q 100.4359375-52.73  110.4959375-52.73Q 120.5559375-52.73  124.85593750000001-48.17Q 129.1459375-43.6  129.1459375-35.16L 129.1459375-35.16L 129.1459375-13.09Q 129.1459375-9.03  130.1759375-7.84Q 131.2059375-6.64  134.5659375-6.64L 134.5659375-6.64L 133.4959375 0.39L 131.6359375 0.39Q 126.7559375 0.39  124.3659375-1.49Q 121.9759375-3.37  120.7059375-7.32L 120.7059375-7.32Q 116.6459375-1.27  110.9359375 0.29L 110.9359375 0.29Q 108.2059375 1.07  104.8359375 1.07ZM 109.4459375-22.88Q 102.4859375-20.85  99.8259375-18.85Q 97.1659375-16.85  97.1659375-13.21Q 97.1659375-9.57  99.6359375-7.71Q 102.0959375-5.86  105.5859375-5.86Q 109.0859375-5.86  111.9159375-6.76Q 114.7459375-7.67  117.0159375-9.45Q 119.2859375-11.23  119.9659375-13.53L 119.9659375-13.53L 119.9659375-28.47Q 116.4059375-24.9  109.4459375-22.88ZM 148.5371875 19.82L 148.5371875 19.82L 148.5371875 12.65Q 154.5871875 12.65  158.3271875 9.67Q 162.0571875 6.69  163.9171875-0.2L 163.9171875-0.2L 142.5771875-51.76L 152.2971875-51.76L 168.1171875-10.55L 181.3471875-51.76L 190.6271875-51.76L 173.6371875-2.2Q 170.2671875 7.62  167.5571875 11.4Q 164.8471875 15.19  162.3571875 16.7L 162.3571875 16.7Q 157.2271875 19.82  148.5371875 19.82Z">
    </path>
</svg>